<svg width="276" height="58" viewBox="0 0 276 58" fill="none" xmlns="http://www.w3.org/2000/svg">
    <path d="M0 0.5448H1.52184H21.0327V11.3201H27.1591V0.739297H48.3868V2.412C48.3868 20.3061 48.3868 38.226 48.3868 56.172C48.3868 56.7166 48.3868 57.2612 48.3868 57.8058H27.3151V47.0693H21.0717C21.0717 47.8862 21.0717 48.6642 21.0717 49.4422C21.0717 52.2041 21.0717 55.005 21.0717 57.8058H0V0.5448ZM35.6268 22.0566V20.8896L32.9733 22.1733L33.6367 22.9513L34.6902 22.5234V24.1961C35.7048 24.1961 35.4707 23.3403 35.6658 22.9124H36.9145C36.4852 22.0177 36.1731 21.7843 35.6268 22.0566ZM35.8609 35.7883C37.3827 35.7883 37.89 34.7769 38.2022 33.571C38.5144 32.3651 38.5924 32.2095 37.5388 31.7427L36.2121 33.2987L35.2365 33.0653L35.8609 31.0814C36.8364 30.4979 36.2511 29.5643 36.5633 28.7474L38.0071 28.2028C38.1942 27.6398 38.2597 27.0437 38.1992 26.4537C38.1386 25.8637 37.9535 25.2931 37.6559 24.7796H36.5242L36.3291 27.1914C35.4316 27.1914 35.4316 26.7246 35.1975 26.2189C34.7293 25.1297 34.5341 25.013 33.4806 25.1297C33.289 26.0349 33.4273 26.9786 33.8707 27.7913C34.3141 28.6041 35.0335 29.2326 35.8999 29.5643V31.0425L34.3 30.6535C34.0819 30.9779 33.9111 31.3315 33.7927 31.7038C33.7927 32.5985 33.4415 33.5321 33.2464 34.6213C31.6075 34.6213 31.8807 32.5985 30.7881 31.8983H29.0711V32.6374L28.2517 32.9875L28.5638 31.8594H26.5737C26.2225 32.4818 25.9104 33.1042 25.5202 33.7266C25.1299 34.349 25.1299 33.96 24.9348 34.0767L25.208 32.7541C23.0514 33.0365 20.8598 32.6565 18.9255 31.6649L17.1695 31.9761L15.6477 34.5824C15.5719 34.6091 15.4893 34.6091 15.4135 34.5824L14.5551 34.349C14.5551 32.4429 14.5551 30.9647 13.3844 30.459C13.1723 30.3503 13.0097 30.165 12.93 29.9409C12.8502 29.7168 12.8592 29.4708 12.9552 29.2531C14.477 28.8252 15.1014 27.3859 14.6331 25.3631C13.1503 25.3631 13.2674 26.6857 12.604 27.3859H11.9796C11.9796 26.4912 11.9796 25.5576 11.3553 24.8963C10.3798 25.1297 10.1456 25.8688 10.1066 26.6857C10.0676 27.5026 9.79443 28.3584 10.5749 28.8252C10.9954 29.0845 11.3442 29.4446 11.5896 29.8726C11.8349 30.3006 11.969 30.783 11.9796 31.2759C12.0797 31.612 12.2382 31.928 12.4479 32.2095L12.0577 34.3101C10.7309 32.5207 10.7309 32.5207 9.95052 32.4429C9.32617 34.6213 10.3407 35.9439 13.1503 36.6052L13.5795 37.6555L12.0577 36.9942C11.1992 37.8111 11.8236 38.4724 12.0577 39.0559C12.2449 39.4599 12.5497 39.7983 12.9325 40.0272C13.3152 40.2562 13.7582 40.365 14.2039 40.3396H14.399C14.8282 39.7172 14.9843 40.3396 15.0624 40.3396C15.1404 40.3396 14.7892 41.5066 15.0624 41.8567C15.3355 42.2068 16.0379 42.3235 16.6232 41.8567L17.7158 41.4677L18.9255 42.0901L17.4036 42.4791C17.0915 43.3349 17.6378 43.6461 18.1841 43.9184C18.8472 44.2677 19.6184 44.3535 20.3424 44.1586C21.0665 43.9637 21.6896 43.5026 22.0862 42.8681L23.2179 43.4516V42.518H22.2033C22.1649 41.9634 21.9782 41.4291 21.6625 40.9707C21.3469 40.5124 20.9138 40.1467 20.4083 39.9117C19.1695 39.5604 17.9673 39.0915 16.8183 38.5113L15.4916 35.4771H23.5691L24.6227 34.6213C24.8568 35.516 24.1544 35.9439 23.8032 36.683L23.0618 35.7494H21.0717L23.7252 40.5341L26.7298 35.2826H31.9587L30.593 38.3168C30.593 38.3168 30.1247 38.3168 29.9686 38.5502C29.4327 39.0153 28.764 39.301 28.0566 39.3671C27.414 39.4459 26.8112 39.7194 26.3297 40.1507C25.8481 40.5821 25.5111 41.1504 25.3641 41.7789C25.303 41.9798 25.2246 42.175 25.1299 42.3624H24.1544C24.1544 42.5958 24.1544 42.7903 24.1544 42.9848C24.1442 43.0883 24.1442 43.1925 24.1544 43.296C24.2955 43.1544 24.4669 43.0464 24.6558 42.9802C24.8447 42.914 25.0462 42.8912 25.2451 42.9137C25.4441 42.9361 25.6354 43.0032 25.8047 43.1098C25.9739 43.2165 26.1168 43.3599 26.2225 43.5294C26.5094 43.7583 26.8395 43.9271 27.1933 44.0258C27.5471 44.1244 27.9172 44.151 28.2815 44.1038C28.6458 44.0565 28.9968 43.9366 29.3135 43.751C29.6302 43.5654 29.9061 43.3181 30.1247 43.0237C30.1247 43.0237 30.1247 42.5958 30.1247 42.3624L28.7589 41.9345C29.4613 41.0787 30.2418 41.4288 30.9832 41.9345C31.7246 42.4402 32.2709 42.2068 32.505 41.5455C32.7392 40.8842 32.2709 40.6897 32.1538 40.2618C32.8952 40.0673 33.9488 40.573 34.8073 39.6394C35.6658 38.7058 36.095 37.8889 35.5097 36.9942L34.1049 37.2276V36.9553L35.5097 36.1384L35.8609 35.7883ZM17.4817 28.0083H21.8521L24.0373 24.1183L26.8859 24.4295L24.3105 19.8393L21.1497 25.2464H20.9156V24.7796H15.7257L17.4817 28.0083ZM29.1882 28.0083H31.1002L32.9733 24.7796H24.3105L23.1008 26.8413H23.5691C24.6617 26.8413 25.8713 26.4912 26.8859 27.347C27.0662 27.4423 27.2672 27.4922 27.4712 27.4922C27.6753 27.4922 27.8763 27.4423 28.0566 27.347C28.4858 26.6857 28.9541 27.0358 29.5004 26.9969L29.1882 28.0083ZM29.6955 28.5918H18.8475V29.4087L20.6815 29.6032L20.9156 31.5482H21.3448V29.4865C21.6148 29.7938 21.7908 30.1718 21.8521 30.5757C21.8521 31.1203 22.0472 31.5871 22.7106 31.626C22.9909 31.6532 23.2725 31.5881 23.5121 31.4405C23.7517 31.293 23.9362 31.0711 24.0373 30.8091C24.1737 30.4187 24.2653 30.0141 24.3105 29.6032H25.7933V31.5871L27.2371 31.1981L26.4567 29.5254H28.6029C28.6029 29.8755 28.6029 30.1867 28.6029 30.4979C28.6029 30.8091 28.6029 31.1592 28.6029 31.5871C29.6564 31.1592 29.7735 30.4979 29.6955 28.6307V28.5918ZM12.3308 20.8118L14.6721 22.679C15.2597 22.1416 15.8857 21.6475 16.5452 21.2008C17.1695 20.8118 17.8329 20.1894 17.6768 19.6059C17.5207 19.0224 17.4817 18.0498 16.5452 17.972V18.7889C15.8818 18.7889 15.5696 17.6608 14.7502 18.7889L16.6622 20.2672L16.155 20.9285L14.2039 19.1002L13.2674 20.5784L12.3308 20.8118ZM21.5399 17.7387L20.7595 15.7158L18.6523 16.2215L19.3157 19.1002L20.0961 18.7501L19.4718 16.9217H20.6424L21.2668 18.5944L24.1544 18.1665L23.5691 15.2101H21.8131V16.1438H23.1008V17.0385L21.5399 17.7387ZM27.8614 18.6722L29.6564 19.5669C30.0461 19.2557 30.3455 18.8465 30.5238 18.3816C30.7021 17.9167 30.7529 17.4128 30.671 16.9217L29.2272 16.027L28.9931 16.9217C29.4613 17.3885 30.593 17.5053 29.7345 18.5556L28.3297 18.011L27.8614 18.6722ZM27.4322 16.5327L27.1981 18.4389H27.5103L28.0566 15.9103L25.6762 15.2101V16.6494L27.4322 16.5327ZM31.7246 17.1551L31.4124 17.5052C31.3803 18.3655 31.1102 19.2002 30.632 19.9171C30.632 19.9171 30.632 20.1894 30.9442 20.3839L32.3489 18.0498L31.7246 17.1551ZM33.6757 20.4228C34.3 20.4228 34.3781 19.8782 34.183 19.5281C33.8553 19.0355 33.4759 18.579 33.0513 18.1665L32.544 18.9057L33.6757 20.4228Z" fill="#0E7ABC"/>
    <path d="M182.348 58C182.894 56.3662 183.363 54.7713 183.909 53.1764C184.455 51.5815 185.197 49.2864 185.938 47.497C186.229 46.7326 186.229 45.8885 185.938 45.1241C184.767 41.8565 183.636 38.5889 182.504 35.2824C182.483 35.0494 182.483 34.8151 182.504 34.5822H276V57.9222L182.348 58ZM268.196 41.0396H266.089L263.708 49.5976L261.484 41.0007H258.87L256.879 49.053L254.577 40.8451H252.431L255.631 51.387H258.284L260.352 43.2569L262.538 51.387H265.23L268.196 41.0396ZM195.225 51.3092H197.059V43.8793L200.649 48.7807C201.023 48.5246 201.376 48.2383 201.703 47.9249C202.444 46.9524 203.108 45.9021 203.849 44.8907L204.551 44.1905H204.786V51.1925H206.581V40.6895H204.551L200.922 45.8243L197.254 40.7284H195.225V51.3092ZM240.881 46.0188C240.865 46.7507 240.996 47.4784 241.265 48.1595C241.534 48.8407 241.936 49.4617 242.448 49.9865C242.96 50.5114 243.571 50.9295 244.247 51.2167C244.922 51.5038 245.648 51.6543 246.383 51.6593C247.818 51.6698 249.2 51.1167 250.23 50.1194C251.259 49.122 251.854 47.7608 251.885 46.33C251.767 44.93 251.127 43.625 250.089 42.6738C249.052 41.7227 247.694 41.1948 246.285 41.1948C244.876 41.1948 243.518 41.7227 242.481 42.6738C241.444 43.625 240.803 44.93 240.685 46.33L240.881 46.0188ZM219.341 46.0188C219.366 45.27 219.231 44.5244 218.945 43.8314C218.66 43.1384 218.23 42.5138 217.684 41.999C217.138 41.4841 216.488 41.0907 215.778 40.8448C215.068 40.599 214.314 40.5062 213.565 40.5728C212.827 40.5356 212.089 40.6493 211.397 40.9068C210.704 41.1643 210.072 41.5603 209.538 42.0703C209.004 42.5803 208.581 43.1936 208.294 43.8726C208.007 44.5516 207.862 45.2819 207.868 46.0188C207.858 46.7657 207.998 47.5072 208.281 48.1989C208.564 48.8906 208.984 49.5183 209.516 50.0447C210.047 50.5711 210.68 50.9854 211.376 51.2628C212.072 51.5402 212.816 51.675 213.565 51.6593C214.286 51.6853 215.004 51.567 215.677 51.3114C216.35 51.0557 216.966 50.6679 217.486 50.171C218.006 49.674 218.421 49.078 218.706 48.4182C218.991 47.7584 219.141 47.0483 219.146 46.33L219.341 46.0188ZM229.174 41.4675C227.781 41.0702 226.359 40.784 224.921 40.6117C223.679 40.461 222.426 40.7803 221.409 41.5064C220.968 41.7547 220.606 42.1219 220.366 42.5657C220.125 43.0096 220.014 43.5122 220.047 44.0158C220.079 44.5194 220.254 45.0037 220.55 45.413C220.846 45.8223 221.252 46.1402 221.721 46.33C222.189 46.5054 222.672 46.6357 223.165 46.719C224.296 46.9913 225.428 47.1469 226.521 47.497C226.728 47.5985 226.91 47.7458 227.052 47.9278C227.194 48.1098 227.292 48.3217 227.34 48.5473C227.34 48.8974 226.95 49.4031 226.599 49.5976C226.063 49.856 225.476 49.989 224.882 49.9866C223.438 49.9866 222.033 49.6365 220.472 49.442L219.965 50.8035C221.528 51.6447 223.313 51.9843 225.077 51.776C226.071 51.7209 227.042 51.4557 227.925 50.998C228.381 50.7506 228.762 50.3851 229.027 49.9402C229.293 49.4952 229.433 48.9871 229.433 48.4695C229.433 47.9518 229.293 47.4438 229.027 46.9988C228.762 46.5538 228.381 46.1884 227.925 45.941C227.302 45.658 226.647 45.4491 225.974 45.3186C225.038 45.0852 224.062 45.0074 223.126 44.7351C222.189 44.4628 222.306 44.1516 222.306 43.8404C222.352 43.6292 222.447 43.4316 222.582 43.2629C222.717 43.0942 222.89 42.959 223.087 42.8679C223.648 42.6613 224.245 42.5687 224.843 42.5956C226.013 42.5956 227.145 43.0235 228.355 43.2569L229.174 41.4675ZM240.217 42.4011C239.085 41.2846 237.556 40.6583 235.964 40.6583C234.371 40.6583 232.843 41.2846 231.71 42.4011C231.224 42.9553 230.851 43.5998 230.614 44.2976C230.377 44.9953 230.28 45.7328 230.329 46.4679C230.378 47.203 230.572 47.9213 230.899 48.5818C231.227 49.2422 231.681 49.8319 232.237 50.3172C232.793 50.8025 233.44 51.1739 234.14 51.4102C234.84 51.6464 235.579 51.7429 236.317 51.6942C237.054 51.6454 237.775 51.4523 238.437 51.126C239.1 50.7996 239.691 50.3464 240.178 49.7921L239.164 48.6251L237.915 49.4031C237.124 49.8261 236.21 49.9642 235.329 49.7942C234.448 49.6241 233.652 49.1562 233.076 48.4695C232.551 47.7893 232.266 46.955 232.266 46.0966C232.266 45.2382 232.551 44.4039 233.076 43.7237C233.648 43.0552 234.429 42.5991 235.293 42.4296C236.158 42.2601 237.054 42.3872 237.837 42.7901L239.164 43.607L240.217 42.4011Z" fill="#01AEEE"/>
    <path d="M276 28.903H270.732V16.5716H258.674V28.8641H253.289V0.778206H258.635V11.3201H270.654V0.739297L276 0.5448V28.903Z" fill="#0E7ABC"/>
    <path d="M213.565 0L216.96 0.816899L218.521 1.20591L217.468 5.79612C215.985 5.56272 214.58 5.29041 213.214 5.13481C210.942 4.7458 208.619 4.7458 206.346 5.13481C205.935 5.18281 205.538 5.31188 205.177 5.51452C204.816 5.71715 204.499 5.98931 204.245 6.31512C203.991 6.64094 203.804 7.01392 203.696 7.41234C203.588 7.81075 203.56 8.22666 203.615 8.63583C203.56 9.19159 203.708 9.74839 204.03 10.2052C204.352 10.662 204.828 10.9885 205.371 11.1254C206.776 11.5144 208.258 11.7089 209.702 12.0201C211.409 12.2708 213.093 12.6611 214.736 13.1871C216.272 13.7718 217.562 14.8616 218.392 16.2764C219.222 17.6911 219.543 19.3459 219.302 20.9672C219.288 21.6624 219.196 22.3538 219.028 23.0289C218.719 24.5751 217.91 25.9781 216.727 27.0244C215.544 28.0707 214.05 28.7029 212.473 28.825C207.945 29.624 203.297 29.4248 198.854 28.2415C198.625 28.1712 198.403 28.0801 198.191 27.9692L199.323 23.5346C201.625 23.8069 203.771 24.157 205.956 24.2737C207.603 24.3327 209.251 24.2153 210.873 23.9236C211.573 23.8466 212.22 23.5138 212.688 22.9894C213.157 22.4649 213.414 21.786 213.409 21.0839C213.409 19.2166 213.019 18.2442 211.341 17.6607C210.058 17.3018 208.755 17.0161 207.439 16.8048C205.676 16.5301 203.93 16.1534 202.21 15.6767C200.997 15.3397 199.926 14.6188 199.159 13.6226C198.391 12.6264 197.97 11.4087 197.957 10.1529C197.859 9.06592 197.859 7.97233 197.957 6.88532C198.226 5.33712 198.959 3.90643 200.059 2.78157C201.16 1.65671 202.576 0.890403 204.122 0.583508L205.878 0H213.565Z" fill="#0E7ABC"/>
    <path d="M174.934 28.6694L173.646 28.2804L174.817 23.6513C177.927 24.4298 181.137 24.7315 184.338 24.546C184.968 24.4802 185.594 24.3763 186.211 24.2348C188.943 23.6513 189.138 21.5118 188.709 19.7224C188.581 19.2737 188.331 18.8691 187.986 18.5533C187.642 18.2375 187.217 18.0228 186.757 17.933C185.402 17.5471 184.019 17.2611 182.621 17.0771C180.651 16.9156 178.717 16.4566 176.885 15.7156C175.849 15.2633 174.964 14.5248 174.334 13.5875C173.705 12.6501 173.358 11.5528 173.334 10.4252C173.198 9.2882 173.198 8.13905 173.334 7.00202C173.579 5.43785 174.297 3.98536 175.391 2.83849C176.486 1.69162 177.905 0.904946 179.46 0.583508L181.49 0H189.294L191.206 0.544599L194.016 1.20591L192.884 5.79612C191.362 5.56272 189.957 5.25152 188.513 5.09592C186.277 4.74606 183.999 4.74606 181.763 5.09592C181.024 5.17169 180.339 5.51407 179.835 6.05858C179.332 6.6031 179.046 7.31219 179.031 8.05232C178.946 8.43941 178.946 8.84048 179.032 9.2275C179.118 9.61452 179.287 9.97817 179.529 10.293C179.77 10.6079 180.078 10.8664 180.43 11.0505C180.782 11.2346 181.17 11.3398 181.568 11.3588C183.324 11.7478 185.119 11.9423 186.875 12.2146C187.602 12.3277 188.32 12.4967 189.021 12.7203C190.686 13.0534 192.176 13.9703 193.222 15.3049C194.267 16.6395 194.798 18.3034 194.718 19.9947C194.745 21.0518 194.654 22.1087 194.445 23.1456C194.239 24.3776 193.686 25.5258 192.85 26.4559C192.014 27.3859 190.929 28.0592 189.723 28.3971C188.333 28.857 186.891 29.1444 185.431 29.2529C183.792 29.2529 182.153 29.2529 180.475 29.2529C180.361 29.0157 180.269 28.7682 180.202 28.5138C180.133 27.8652 179.88 27.2496 179.472 26.7397C179.064 26.2297 178.519 25.8465 177.9 25.6352C177.465 25.9212 177.048 26.2329 176.651 26.5688C176.066 27.3857 175.519 28.047 174.934 28.6694Z" fill="#0E7ABC"/>
    <path d="M174.934 28.6695C175.519 28.0471 176.066 27.3858 176.69 26.8023C177.087 26.4665 177.504 26.1547 177.939 25.8687C178.558 26.0801 179.103 26.4633 179.511 26.9732C179.919 27.4832 180.172 28.0987 180.241 28.7473C180.308 29.0018 180.4 29.2492 180.514 29.4864C179.532 35.415 176.392 40.7747 171.695 44.5408C171.47 44.8248 171.192 45.0626 170.876 45.241C170.006 45.756 169.27 46.4681 168.727 47.3197C168.185 48.1713 167.851 49.1383 167.754 50.1424C167.487 51.4234 167.331 52.7248 167.286 54.0324C167.286 55.5106 168.222 56.0163 169.588 55.5884C170.954 55.1141 172.149 54.248 173.022 53.0988C174.076 51.7762 174.973 50.3369 175.949 48.9754C176.21 48.618 176.497 48.28 176.807 47.964C177.061 48.2198 177.242 48.5385 177.331 48.8872C177.42 49.236 177.414 49.6021 177.314 49.9479C177.086 50.8735 176.732 51.7635 176.261 52.5931C175.072 54.2792 173.456 55.6214 171.578 56.4831C170.96 56.7711 170.302 56.9677 169.627 57.0666C168.54 57.3651 167.379 57.2214 166.399 56.667C165.419 56.1127 164.699 55.1931 164.398 54.1102C163.655 54.8381 162.873 55.5263 162.057 56.1719C161.423 56.7454 160.656 57.1525 159.825 57.3562C158.994 57.56 158.125 57.5541 157.296 57.3389C156.619 57.203 155.996 56.873 155.504 56.3893C155.011 55.9057 154.672 55.2893 154.526 54.6159L154.253 53.799C153.775 54.3335 153.267 54.8401 152.731 55.3161C151.606 56.4702 150.089 57.1638 148.477 57.2611C147.623 57.3583 146.761 57.1496 146.046 56.6722C145.332 56.1948 144.81 55.4798 144.575 54.6548L144.185 53.3711C142.876 54.7537 141.295 55.8528 139.541 56.5998C137.877 57.2904 136.053 57.5059 134.273 57.2222C133.458 57.0792 132.685 56.7572 132.01 56.2795C131.335 55.8018 130.776 55.1804 130.371 54.4603C130.137 54.1102 129.981 53.7601 129.786 53.41C128.849 54.2658 127.991 55.1605 127.054 55.8996C125.974 56.8396 124.586 57.3518 123.152 57.3389C122.295 57.4527 121.426 57.2507 120.707 56.7708C119.989 56.291 119.471 55.5662 119.25 54.7326C118.197 55.4328 117.221 56.2497 116.128 56.8721C115.131 57.4658 113.941 57.6473 112.812 57.3778C112.094 57.288 111.423 56.9774 110.892 56.4893C110.36 56.0012 109.995 55.3599 109.846 54.6548C109.793 54.4013 109.714 54.1537 109.612 53.9157C108.753 54.6937 107.973 55.4328 107.114 56.0941C106.247 56.7896 105.182 57.1976 104.071 57.2611C103.224 57.3786 102.363 57.1875 101.646 56.723C100.929 56.2585 100.405 55.5518 100.169 54.7326L99.8564 53.7601L98.5687 54.7715C96.9035 56.0871 94.9292 56.9574 92.8325 57.3C91.7981 57.5595 90.7148 57.5554 89.6823 57.2882C88.6499 57.021 87.7014 56.4993 86.9242 55.771C86.147 55.0427 85.566 54.1312 85.2347 53.1204C84.9033 52.1097 84.8323 51.0321 85.0282 49.9868C85.2409 47.6665 85.9587 45.4204 87.1313 43.4049C88.3039 41.3894 89.9033 39.653 91.8179 38.3168C92.3415 37.9456 92.9041 37.6325 93.4959 37.3832C94.1946 37.0247 94.9857 36.8849 95.7655 36.982C96.5453 37.0792 97.2775 37.4088 97.8663 37.9278C98.4516 38.3946 98.9589 38.9003 99.5052 39.406C100.06 40.0274 100.365 40.8305 100.364 41.6622C100.204 43.3341 99.6034 44.9343 98.6235 46.3005C97.6436 47.6667 96.3189 48.7506 94.7836 49.4422C94.1517 49.6714 93.4794 49.7689 92.8082 49.7287C92.1371 49.6886 91.4813 49.5116 90.8814 49.2088L89.2815 48.3141C88.8282 49.2824 88.5933 50.3381 88.5933 51.4067C88.5933 52.4753 88.8282 53.5309 89.2815 54.4992C89.5016 54.9331 89.8443 55.2932 90.2673 55.5351C90.6903 55.7771 91.1751 55.8903 91.6618 55.8607C93.2855 55.8607 94.8585 55.2967 96.1103 54.2658C97.3665 53.2014 98.5405 52.0441 99.6223 50.8037C99.9309 50.4027 100.144 49.9372 100.247 49.4422C101.761 45.0104 104.678 41.1883 108.558 38.5502C109.599 37.7673 110.847 37.3073 112.148 37.2276C112.817 37.1327 113.497 37.292 114.054 37.6739C114.611 38.0559 115.003 38.6325 115.153 39.2893L115.465 40.1062L117.026 37.1498C118.509 34.4657 119.953 31.7427 121.396 29.0586C122.45 28.125 122.645 26.4522 124.206 25.5964C124.448 26.1598 124.631 26.7463 124.752 27.3469C124.792 27.9298 124.792 28.5146 124.752 29.0975C124.399 30.4274 123.942 31.7279 123.386 32.9875C121.24 36.8775 118.977 41.0398 116.831 45.0465C115.699 47.186 114.607 49.3644 113.553 51.5428C113.184 52.4261 112.884 53.3364 112.655 54.2658C112.655 54.8493 112.655 55.6273 113.124 55.8607C113.672 56.0175 114.253 56.0175 114.802 55.8607C115.155 55.7421 115.476 55.5422 115.738 55.2772C117.598 53.6802 119.033 51.6488 119.914 49.3644C121.425 45.5843 123.307 41.962 125.533 38.5502C125.839 38.1593 126.179 37.795 126.547 37.461C126.935 37.6927 127.252 38.025 127.465 38.4223C127.678 38.8197 127.779 39.2672 127.757 39.7172C127.849 41.1453 127.509 42.568 126.781 43.8017C125.728 45.8245 124.635 47.6917 123.621 49.909C123.15 50.8477 122.759 51.8235 122.45 52.8265C122.35 53.458 122.35 54.1012 122.45 54.7326C122.43 54.9204 122.461 55.1102 122.539 55.282C122.618 55.4537 122.742 55.6011 122.898 55.7086C123.054 55.8161 123.235 55.8798 123.425 55.8929C123.614 55.9059 123.803 55.868 123.972 55.7829C124.739 55.5053 125.452 55.0973 126.079 54.577C127.411 53.3558 128.474 51.8722 129.201 50.2202C129.333 49.882 129.424 49.5295 129.474 49.1699C130.21 44.9795 132.459 41.2022 135.795 38.5502C136.165 38.2728 136.556 38.0256 136.966 37.8111C137.505 37.4295 138.122 37.1704 138.772 37.0519C139.423 36.9335 140.092 36.9586 140.731 37.1254C141.371 37.2923 141.967 37.5969 142.476 38.0178C142.985 38.4386 143.395 38.9656 143.678 39.5616C143.999 39.9601 144.211 40.4348 144.293 40.9393C144.375 41.4438 144.324 41.9609 144.146 42.4402C143.405 44.3463 142.624 46.3302 141.883 48.0807C140.361 47.6917 139.776 47.0693 139.658 45.8245C139.568 44.5486 139.824 43.272 140.4 42.129C140.952 41.2813 141.263 40.2996 141.297 39.2893C140.4 38.9781 139.893 39.4838 139.385 39.9117C136.769 42.1085 134.822 44.9924 133.766 48.2363C133.054 49.8919 132.877 51.7273 133.259 53.4878C133.31 53.8542 133.436 54.2062 133.629 54.5217C133.823 54.8372 134.08 55.1094 134.384 55.3212C134.688 55.5331 135.033 55.68 135.396 55.7528C135.76 55.8255 136.135 55.8225 136.498 55.744C138.197 55.5568 139.787 54.8189 141.024 53.6434C142.234 52.5153 143.287 51.2705 144.419 50.0257C144.637 49.7349 144.796 49.4046 144.887 49.0532C146.392 44.9035 149.111 41.2991 152.692 38.7058C153.786 37.9665 154.982 37.3899 156.243 36.9942C156.67 36.8427 157.126 36.7921 157.576 36.8466C158.026 36.901 158.458 37.0589 158.836 37.3079C159.214 37.5568 159.529 37.8899 159.757 38.2811C159.984 38.6722 160.117 39.1105 160.145 39.5616C160.127 39.6776 160.127 39.7957 160.145 39.9117L162.252 36.7219C163.423 37.1498 163.501 38.0834 163.618 38.9003C163.869 40.4365 163.594 42.0125 162.837 43.3738C161.628 45.5522 160.301 47.7306 159.208 49.9868C158.506 51.2992 157.944 52.6812 157.53 54.1102C157.399 54.4155 157.378 54.7566 157.471 55.0757C157.563 55.3947 157.764 55.6721 158.038 55.8607C158.36 55.9909 158.713 56.0307 159.057 55.9758C159.4 55.921 159.723 55.7736 159.989 55.5495C161.246 54.7052 162.31 53.6048 163.11 52.3208C163.873 51.3444 164.419 50.2172 164.71 49.0143C166.369 42.2411 169.44 35.8922 173.724 30.3812C174.154 29.7977 174.544 29.2141 174.934 28.6695ZM170.368 43.8017C170.368 43.8017 170.368 43.8017 170.603 43.8017C174.021 40.714 176.633 36.8418 178.212 32.5207C178.403 32.2758 178.525 31.9846 178.567 31.677C178.608 31.3694 178.566 31.0564 178.446 30.7702C178.033 31.1765 177.642 31.6051 177.275 32.0539C175.871 34.1934 174.466 36.3329 173.139 38.5113C171.812 40.6897 171.344 42.0123 170.447 43.7239V43.9573L170.368 43.8017ZM147.658 53.7212C147.84 54.3378 148.131 54.9173 148.516 55.4328C149.102 55.9385 149.843 55.4328 150.428 55.0438C151.063 54.6128 151.64 54.103 152.145 53.5267C154.874 50.239 156.977 46.4817 158.35 42.4402C158.551 41.8915 158.656 41.3127 158.662 40.7286C158.662 39.6394 158.077 39.1726 157.101 39.6394C156.36 40.0105 155.666 40.4675 155.033 41.0009C152.919 42.9018 151.15 45.1521 149.804 47.6528C148.721 49.5272 147.994 51.5843 147.658 53.7212ZM113.163 39.5227C112.384 39.8673 111.639 40.2841 110.939 40.7675C107.32 43.63 104.688 47.5463 103.407 51.9707C103.207 52.758 103.141 53.5734 103.212 54.3825C103.212 55.4717 103.993 55.8996 104.929 55.4328C105.813 55.053 106.61 54.497 107.27 53.799C110.222 50.3023 112.391 46.2174 113.631 41.8178C113.814 41.4365 113.867 41.0062 113.782 40.5921C113.698 40.178 113.48 39.8026 113.163 39.5227ZM89.7498 46.9526C90.179 47.3353 90.7347 47.5469 91.3106 47.5469C91.8866 47.5469 92.4423 47.3353 92.8715 46.9526C95.0635 45.3497 96.6565 43.0636 97.398 40.4563C97.4762 40.1237 97.4762 39.7775 97.398 39.4449C94.9397 39.2504 91.4667 42.7514 89.7108 46.9526H89.7498Z" fill="#01AEEE"/>
    <path d="M124.791 28.9803C124.831 28.3974 124.831 27.8126 124.791 27.2298C124.67 26.6291 124.487 26.0426 124.245 25.4792C122.684 26.3351 122.489 28.0078 121.435 28.9414H116.558V0.73877H117.767C121.24 0.73877 124.752 0.73877 128.264 0.73877C130.002 0.777895 131.73 1.01279 133.415 1.43897C135.019 1.80969 136.485 2.62868 137.639 3.79994C138.793 4.9712 139.588 6.44619 139.932 8.052C140.73 11.1094 140.967 14.2853 140.634 17.4269C140.508 18.7408 140.273 20.0419 139.932 21.3169C139.529 23.2001 138.538 24.9074 137.1 26.1935C135.663 27.4796 133.854 28.2782 131.932 28.4746C129.591 28.9414 127.171 28.8636 124.791 28.9803ZM122.06 5.64019V24.3511C124.518 24.3511 126.898 24.3511 129.279 24.3511C130.591 24.415 131.876 23.9609 132.854 23.0871C133.833 22.2134 134.427 20.9904 134.508 19.6831C135.132 16.5761 135.132 13.3764 134.508 10.2693C134.485 9.6089 134.325 8.96032 134.039 8.36444C133.752 7.76855 133.345 7.23828 132.843 6.80705C132.341 6.37581 131.754 6.05295 131.121 5.85882C130.487 5.66469 129.82 5.60349 129.162 5.67909C126.859 5.40679 124.518 5.48459 122.06 5.48459V5.64019Z" fill="#0E7ABC"/>
    <path d="M70.1999 49.5979C72.6582 46.2525 75.0776 42.8681 77.5359 39.5616C79.9943 36.2551 82.1405 33.4932 84.4037 30.459C84.7274 29.9753 85.0144 29.4682 85.2622 28.9419L86.9011 26.8024C87.5255 25.9466 88.0327 25.8299 88.6961 26.8024C89.1171 27.5337 89.4697 28.3019 89.7497 29.0975C89.8113 30.9303 89.3368 32.7414 88.3839 34.3101C84.6804 41.2396 81.3967 48.3841 78.5505 55.7052C78.3164 56.3665 78.0432 57.0278 77.7701 57.728C77.284 57.5632 76.8687 57.2385 76.5921 56.8073C76.3156 56.3761 76.1943 55.864 76.2482 55.3551C76.2671 54.1226 76.4241 52.8961 76.7165 51.6985C78.0404 47.6839 79.6846 43.7815 81.6332 40.0284C81.9064 39.4449 82.1405 38.8614 82.3746 38.239V37.9667H82.1405C80.1504 40.5341 78.0042 43.0237 76.1702 45.7468C73.7118 49.3645 71.4876 53.06 69.1463 56.7555C68.9512 57.0278 68.717 57.3001 68.5219 57.6113C67.5565 57.123 66.7869 56.3212 66.34 55.3382C65.893 54.3553 65.7956 53.2498 66.0636 52.2042C66.883 48.3142 67.8586 44.4242 68.7951 40.3007C69.0799 39.2911 69.3015 38.2647 69.4585 37.2276C67.0726 40.3789 64.9332 43.7081 63.0589 47.1861C61.1078 50.6482 59.1567 54.1881 57.4008 57.7669C57.0267 57.5209 56.7202 57.1857 56.5089 56.7917C56.2977 56.3977 56.1885 55.9574 56.1911 55.5107C56.15 53.8745 56.5983 52.263 57.4788 50.8816C59.3518 47.3028 61.1468 43.7239 63.215 40.2618C65.9075 35.8272 68.7951 31.5093 71.6046 27.1914C72.5412 25.791 72.9704 25.8299 74.1411 27.1914C74.6453 27.6925 75.0191 28.3089 75.2299 28.9868C75.4407 29.6648 75.4822 30.3838 75.3507 31.0814C74.9995 32.7541 74.4922 34.4268 74.024 36.0995C72.8143 40.2229 71.5656 44.3464 70.3559 48.4698C70.2593 48.8155 70.1812 49.1661 70.1218 49.5201V50.1036H70.3169L70.1999 49.5979Z" fill="#01AEEE"/>
    <path d="M80.8918 28.9028H75.4288V16.5325H63.4882V28.8638H58.0251V0.777954H63.4492V11.3199H75.1557V0.777954H80.8918V28.9028Z" fill="#0E7ABC"/>
    <path d="M228.862 22.056L226.716 28.8636H221.057C224.062 19.333 227.496 9.997 231.242 0.73877H239.593L249.66 28.8247H243.885L241.232 22.056H228.862ZM234.754 4.97888L230.345 17.2324H239.476C238.266 13.3424 237.095 9.7247 235.847 6.02919C235.808 5.56239 235.3 5.36788 234.754 4.97888Z" fill="#0E7ABC"/>
    <path d="M170.642 28.8636H164.866L162.213 22.056H149.882L147.697 28.8636H142.039C145.082 19.333 148.477 9.997 152.223 0.73877H160.574L170.642 28.8636ZM156.672 5.52348C155.696 5.13448 155.501 5.75689 155.306 6.3404L151.599 16.4933C151.577 16.7782 151.577 17.0643 151.599 17.3491H160.652L156.672 5.52348Z" fill="#0E7ABC"/>
    <path d="M89.7498 28.9806C89.4592 28.2518 89.1067 27.549 88.6962 26.88C88.0328 26.0242 87.5255 26.1409 86.9012 26.88L85.2623 29.0195H84.794C87.4533 19.4007 90.7781 9.9773 94.7445 0.816895H103.017L113.124 28.9417H107.153L104.305 22.0564H92.1301C91.5057 24.0014 90.9204 25.9464 90.257 27.9303C90.12 28.2949 89.9503 28.6465 89.7498 28.9806ZM98.9979 5.40711C98.1394 5.09591 97.8662 5.4071 97.6321 6.14621C96.4224 9.56942 95.1347 12.9926 93.73 16.4547C93.7088 16.7136 93.7088 16.9738 93.73 17.2327H102.744L98.9979 5.40711Z" fill="#0E7ABC"/>
    <path d="M131.152 35.4772C131.167 35.6974 131.167 35.9183 131.152 36.1385C131.134 36.5051 130.996 36.8558 130.759 37.1366C130.522 37.4174 130.199 37.6127 129.84 37.6923C129.48 37.7719 129.105 37.7315 128.771 37.5772C128.436 37.423 128.163 37.1635 127.991 36.8387C127.526 36.3059 127.254 35.6328 127.218 34.9273C127.183 34.2219 127.386 33.525 127.796 32.9487C127.887 32.7791 128.014 32.6308 128.168 32.5136C128.321 32.3964 128.497 32.313 128.686 32.2689C128.874 32.2247 129.069 32.2209 129.259 32.2576C129.448 32.2944 129.628 32.3708 129.786 32.4819C130.293 32.7822 130.696 33.2303 130.94 33.7658C131.185 34.3014 131.258 34.8986 131.152 35.4772Z" fill="#01AEEE"/>
    <path d="M12.8381 34.0765V35.6325C12.2528 35.1657 12.2528 35.1657 12.4089 34.1154L12.8381 34.0765Z" fill="#0E7ABC"/>
    <path d="M35.8999 35.7883C34.7683 35.516 35.6267 34.9714 35.8999 34.5046V35.7883Z" fill="#0E7ABC"/>
    <path d="M249.894 46.0968C249.938 46.5922 249.877 47.0913 249.716 47.562C249.555 48.0328 249.298 48.465 248.96 48.831C248.622 49.1971 248.212 49.4889 247.754 49.6879C247.297 49.8868 246.803 49.9886 246.305 49.9868C245.509 49.7405 244.814 49.2472 244.32 48.5787C243.826 47.9103 243.56 47.102 243.56 46.2718C243.56 45.4417 243.826 44.6333 244.32 43.9649C244.814 43.2965 245.509 42.8031 246.305 42.5569C246.774 42.5517 247.24 42.6395 247.675 42.8151C248.111 42.9907 248.507 43.2506 248.841 43.5798C249.175 43.909 249.44 44.301 249.621 44.733C249.801 45.1651 249.895 45.6286 249.894 46.0968Z" fill="#01AEEE"/>
    <path d="M213.565 42.4398C214.347 42.3773 215.13 42.5512 215.812 42.9388C216.493 43.3265 217.041 43.9099 217.385 44.6129C217.729 45.3159 217.852 46.1059 217.739 46.8798C217.625 47.6537 217.28 48.3756 216.749 48.9511C216.218 49.5267 215.525 49.9293 214.761 50.1064C213.997 50.2835 213.197 50.2268 212.466 49.9438C211.734 49.6607 211.105 49.1645 210.661 48.5198C210.217 47.8751 209.978 47.112 209.975 46.3298C209.938 45.8356 210.003 45.339 210.166 44.8708C210.329 44.4026 210.587 43.9728 210.923 43.608C211.26 43.2433 211.668 42.9514 212.123 42.7504C212.577 42.5495 213.068 42.4438 213.565 42.4398Z" fill="#01AEEE"/>
</svg>
